<svg id="my-svg" width="1805.76171875" xmlns="http://www.w3.org/2000/svg" xmlns:xlink="http://www.w3.org/1999/xlink" class="flowchart" height="3672.625" viewBox="0 0 1805.76171875 3672.625" role="graphics-document document" aria-roledescription="flowchart-v2" style="background-color: white;"><style>#my-svg{font-family:PingFang SC,Microsoft YaHei,Arial,sans-serif;font-size:16px;fill:#333;}@keyframes edge-animation-frame{from{stroke-dashoffset:0;}}@keyframes dash{to{stroke-dashoffset:0;}}#my-svg .edge-animation-slow{stroke-dasharray:9,5!important;stroke-dashoffset:900;animation:dash 50s linear infinite;stroke-linecap:round;}#my-svg .edge-animation-fast{stroke-dasharray:9,5!important;stroke-dashoffset:900;animation:dash 20s linear infinite;stroke-linecap:round;}#my-svg .error-icon{fill:#552222;}#my-svg .error-text{fill:#552222;stroke:#552222;}#my-svg .edge-thickness-normal{stroke-width:1px;}#my-svg .edge-thickness-thick{stroke-width:3.5px;}#my-svg .edge-pattern-solid{stroke-dasharray:0;}#my-svg .edge-thickness-invisible{stroke-width:0;fill:none;}#my-svg .edge-pattern-dashed{stroke-dasharray:3;}#my-svg .edge-pattern-dotted{stroke-dasharray:2;}#my-svg .marker{fill:#333333;stroke:#333333;}#my-svg .marker.cross{stroke:#333333;}#my-svg svg{font-family:PingFang SC,Microsoft YaHei,Arial,sans-serif;font-size:16px;}#my-svg p{margin:0;}#my-svg .label{font-family:PingFang SC,Microsoft YaHei,Arial,sans-serif;color:#333;}#my-svg .cluster-label text{fill:#333;}#my-svg .cluster-label span{color:#333;}#my-svg .cluster-label span p{background-color:transparent;}#my-svg .label text,#my-svg span{fill:#333;color:#333;}#my-svg .node rect,#my-svg .node circle,#my-svg .node ellipse,#my-svg .node polygon,#my-svg .node path{fill:#ECECFF;stroke:#9370DB;stroke-width:1px;}#my-svg .rough-node .label text,#my-svg .node .label text,#my-svg .image-shape .label,#my-svg .icon-shape .label{text-anchor:middle;}#my-svg .node .katex path{fill:#000;stroke:#000;stroke-width:1px;}#my-svg .rough-node .label,#my-svg .node .label,#my-svg .image-shape .label,#my-svg .icon-shape .label{text-align:center;}#my-svg .node.clickable{cursor:pointer;}#my-svg .root .anchor path{fill:#333333!important;stroke-width:0;stroke:#333333;}#my-svg .arrowheadPath{fill:#333333;}#my-svg .edgePath .path{stroke:#333333;stroke-width:2.0px;}#my-svg .flowchart-link{stroke:#333333;fill:none;}#my-svg .edgeLabel{background-color:rgba(232,232,232, 0.8);text-align:center;}#my-svg .edgeLabel p{background-color:rgba(232,232,232, 0.8);}#my-svg .edgeLabel rect{opacity:0.5;background-color:rgba(232,232,232, 0.8);fill:rgba(232,232,232, 0.8);}#my-svg .labelBkg{background-color:rgba(232, 232, 232, 0.5);}#my-svg .cluster rect{fill:#ffffde;stroke:#aaaa33;stroke-width:1px;}#my-svg .cluster text{fill:#333;}#my-svg .cluster span{color:#333;}#my-svg div.mermaidTooltip{position:absolute;text-align:center;max-width:200px;padding:2px;font-family:PingFang SC,Microsoft YaHei,Arial,sans-serif;font-size:12px;background:hsl(80, 100%, 96.2745098039%);border:1px solid #aaaa33;border-radius:2px;pointer-events:none;z-index:100;}#my-svg .flowchartTitleText{text-anchor:middle;font-size:18px;fill:#333;}#my-svg rect.text{fill:none;stroke-width:0;}#my-svg .icon-shape,#my-svg .image-shape{background-color:rgba(232,232,232, 0.8);text-align:center;}#my-svg .icon-shape p,#my-svg .image-shape p{background-color:rgba(232,232,232, 0.8);padding:2px;}#my-svg .icon-shape .label rect,#my-svg .image-shape .label rect{opacity:0.5;background-color:rgba(232,232,232, 0.8);fill:rgba(232,232,232, 0.8);}#my-svg .label-icon{display:inline-block;height:1em;overflow:visible;vertical-align:-0.125em;}#my-svg .node .label-icon path{fill:currentColor;stroke:revert;stroke-width:revert;}#my-svg :root{--mermaid-font-family:PingFang SC,Microsoft YaHei,Arial,sans-serif;}</style><g><marker id="my-svg_flowchart-v2-pointEnd" class="marker flowchart-v2" viewBox="0 0 10 10" refX="5" refY="5" markerUnits="userSpaceOnUse" markerWidth="8" markerHeight="8" orient="auto"><path d="M 0 0 L 10 5 L 0 10 z" class="arrowMarkerPath" style="stroke-width: 1; stroke-dasharray: 1, 0;"/></marker><marker id="my-svg_flowchart-v2-pointStart" class="marker flowchart-v2" viewBox="0 0 10 10" refX="4.5" refY="5" markerUnits="userSpaceOnUse" markerWidth="8" markerHeight="8" orient="auto"><path d="M 0 5 L 10 10 L 10 0 z" class="arrowMarkerPath" style="stroke-width: 1; stroke-dasharray: 1, 0;"/></marker><marker id="my-svg_flowchart-v2-circleEnd" class="marker flowchart-v2" viewBox="0 0 10 10" refX="11" refY="5" markerUnits="userSpaceOnUse" markerWidth="11" markerHeight="11" orient="auto"><circle cx="5" cy="5" r="5" class="arrowMarkerPath" style="stroke-width: 1; stroke-dasharray: 1, 0;"/></marker><marker id="my-svg_flowchart-v2-circleStart" class="marker flowchart-v2" viewBox="0 0 10 10" refX="-1" refY="5" markerUnits="userSpaceOnUse" markerWidth="11" markerHeight="11" orient="auto"><circle cx="5" cy="5" r="5" class="arrowMarkerPath" style="stroke-width: 1; stroke-dasharray: 1, 0;"/></marker><marker id="my-svg_flowchart-v2-crossEnd" class="marker cross flowchart-v2" viewBox="0 0 11 11" refX="12" refY="5.2" markerUnits="userSpaceOnUse" markerWidth="11" markerHeight="11" orient="auto"><path d="M 1,1 l 9,9 M 10,1 l -9,9" class="arrowMarkerPath" style="stroke-width: 2; stroke-dasharray: 1, 0;"/></marker><marker id="my-svg_flowchart-v2-crossStart" class="marker cross flowchart-v2" viewBox="0 0 11 11" refX="-1" refY="5.2" markerUnits="userSpaceOnUse" markerWidth="11" markerHeight="11" orient="auto"><path d="M 1,1 l 9,9 M 10,1 l -9,9" class="arrowMarkerPath" style="stroke-width: 2; stroke-dasharray: 1, 0;"/></marker><g class="root"><g class="clusters"/><g class="edgePaths"><path d="M205.203,164L205.203,169C205.203,174,205.203,184,205.203,193.333C205.203,202.667,205.203,211.333,205.203,215.667L205.203,220" id="L_A_B_0" class="edge-thickness-normal edge-pattern-solid edge-thickness-normal edge-pattern-solid flowchart-link" style=";" data-edge="true" data-et="edge" data-id="L_A_B_0" data-points="W3sieCI6MjA1LjIwMzEyNSwieSI6MTY0fSx7IngiOjIwNS4yMDMxMjUsInkiOjE5NH0seyJ4IjoyMDUuMjAzMTI1LCJ5IjoyMjR9XQ==" marker-end="url(#my-svg_flowchart-v2-pointEnd)"/><path d="M205.203,308L205.203,313C205.203,318,205.203,328,205.203,337.333C205.203,346.667,205.203,355.333,205.203,359.667L205.203,364" id="L_B_C_0" class="edge-thickness-normal edge-pattern-solid edge-thickness-normal edge-pattern-solid flowchart-link" style=";" data-edge="true" data-et="edge" data-id="L_B_C_0" data-points="W3sieCI6MjA1LjIwMzEyNSwieSI6MzA4fSx7IngiOjIwNS4yMDMxMjUsInkiOjMzOH0seyJ4IjoyMDUuMjAzMTI1LCJ5IjozNjh9XQ==" marker-end="url(#my-svg_flowchart-v2-pointEnd)"/><path d="M148.507,619.304L138.923,635.753C129.338,652.203,110.169,685.101,100.585,719.551C91,754,91,790,91,824C91,858,91,890,91,920C91,950,91,978,91,1008C91,1038,91,1070,91,1118.667C91,1167.333,91,1232.667,91,1298C91,1363.333,91,1428.667,91,1477.333C91,1526,91,1558,91,1588C91,1618,91,1646,112.486,1681.198C133.973,1716.397,176.946,1758.794,198.432,1779.992L219.919,1801.191" id="L_C_D_0" class="edge-thickness-normal edge-pattern-solid edge-thickness-normal edge-pattern-solid flowchart-link" style=";" data-edge="true" data-et="edge" data-id="L_C_D_0" data-points="W3sieCI6MTQ4LjUwNzEwOTI4NDQ5MSwieSI6NjE5LjMwMzk4NDI4NDQ5MX0seyJ4Ijo5MSwieSI6NzE4fSx7IngiOjkxLCJ5Ijo4MjZ9LHsieCI6OTEsInkiOjkyMn0seyJ4Ijo5MSwieSI6MTAwNn0seyJ4Ijo5MSwieSI6MTEwMn0seyJ4Ijo5MSwieSI6MTI5OH0seyJ4Ijo5MSwieSI6MTQ5NH0seyJ4Ijo5MSwieSI6MTU5MH0seyJ4Ijo5MSwieSI6MTY3NH0seyJ4IjoyMjIuNzY2MzA0MzQ3ODI2MSwieSI6MTgwNH1d" marker-end="url(#my-svg_flowchart-v2-pointEnd)"/><path d="M332.234,1804L354.195,1782.333C376.156,1760.667,420.078,1717.333,442.039,1681.667C464,1646,464,1618,464,1588C464,1558,464,1526,464,1477.333C464,1428.667,464,1363.333,464,1298C464,1232.667,464,1167.333,464,1118.667C464,1070,464,1038,464,1008C464,978,464,950,464,920C464,890,464,858,464,824C464,790,464,754,436.004,714.797C408.008,675.594,352.016,633.189,324.02,611.986L296.024,590.783" id="L_D_C_0" class="edge-thickness-normal edge-pattern-solid edge-thickness-normal edge-pattern-solid flowchart-link" style=";" data-edge="true" data-et="edge" data-id="L_D_C_0" data-points="W3sieCI6MzMyLjIzMzY5NTY1MjE3Mzk0LCJ5IjoxODA0fSx7IngiOjQ2NCwieSI6MTY3NH0seyJ4Ijo0NjQsInkiOjE1OTB9LHsieCI6NDY0LCJ5IjoxNDk0fSx7IngiOjQ2NCwieSI6MTI5OH0seyJ4Ijo0NjQsInkiOjExMDJ9LHsieCI6NDY0LCJ5IjoxMDA2fSx7IngiOjQ2NCwieSI6OTIyfSx7IngiOjQ2NCwieSI6ODI2fSx7IngiOjQ2NCwieSI6NzE4fSx7IngiOjI5Mi44MzUwMzQ4NDk4NjQzLCJ5Ijo1ODguMzY4MDkwMTUwMTM1N31d" marker-end="url(#my-svg_flowchart-v2-pointEnd)"/><path d="M246.701,634.502L251.834,648.419C256.967,662.335,267.234,690.167,272.367,710.417C277.5,730.667,277.5,743.333,277.5,749.667L277.5,756" id="L_C_E_0" class="edge-thickness-normal edge-pattern-solid edge-thickness-normal edge-pattern-solid flowchart-link" style=";" data-edge="true" data-et="edge" data-id="L_C_E_0" data-points="W3sieCI6MjQ2LjcwMDg4Mjg0NzUzMzYyLCJ5Ijo2MzQuNTAyMjQyMTUyNDY2NH0seyJ4IjoyNzcuNSwieSI6NzE4fSx7IngiOjI3Ny41LCJ5Ijo3NjB9XQ==" marker-end="url(#my-svg_flowchart-v2-pointEnd)"/><path d="M277.5,892L277.5,897C277.5,902,277.5,912,277.5,921.333C277.5,930.667,277.5,939.333,277.5,943.667L277.5,948" id="L_E_H_0" class="edge-thickness-normal edge-pattern-solid edge-thickness-normal edge-pattern-solid flowchart-link" style=";" data-edge="true" data-et="edge" data-id="L_E_H_0" data-points="W3sieCI6Mjc3LjUsInkiOjg5Mn0seyJ4IjoyNzcuNSwieSI6OTIyfSx7IngiOjI3Ny41LCJ5Ijo5NTJ9XQ==" marker-end="url(#my-svg_flowchart-v2-pointEnd)"/><path d="M277.5,1060L277.5,1067C277.5,1074,277.5,1088,277.5,1101.333C277.5,1114.667,277.5,1127.333,277.5,1133.667L277.5,1140" id="L_H_I_0" class="edge-thickness-normal edge-pattern-solid edge-thickness-normal edge-pattern-solid flowchart-link" style=";" data-edge="true" data-et="edge" data-id="L_H_I_0" data-points="W3sieCI6Mjc3LjUsInkiOjEwNjB9LHsieCI6Mjc3LjUsInkiOjExMDJ9LHsieCI6Mjc3LjUsInkiOjExNDR9XQ==" marker-end="url(#my-svg_flowchart-v2-pointEnd)"/><path d="M277.5,1452L277.5,1459C277.5,1466,277.5,1480,277.5,1493.333C277.5,1506.667,277.5,1519.333,277.5,1525.667L277.5,1532" id="L_I_J_0" class="edge-thickness-normal edge-pattern-solid edge-thickness-normal edge-pattern-solid flowchart-link" style=";" data-edge="true" data-et="edge" data-id="L_I_J_0" data-points="W3sieCI6Mjc3LjUsInkiOjE0NTJ9LHsieCI6Mjc3LjUsInkiOjE0OTR9LHsieCI6Mjc3LjUsInkiOjE1MzZ9XQ==" marker-end="url(#my-svg_flowchart-v2-pointEnd)"/><path d="M277.5,1644L277.5,1649C277.5,1654,277.5,1664,277.5,1690C277.5,1716,277.5,1758,277.5,1779L277.5,1800" id="L_J_D_0" class="edge-thickness-normal edge-pattern-solid edge-thickness-normal edge-pattern-solid flowchart-link" style=";" data-edge="true" data-et="edge" data-id="L_J_D_0" data-points="W3sieCI6Mjc3LjUsInkiOjE2NDR9LHsieCI6Mjc3LjUsInkiOjE2NzR9LHsieCI6Mjc3LjUsInkiOjE4MDR9XQ==" marker-end="url(#my-svg_flowchart-v2-pointEnd)"/><path d="M387.384,1342.116L450.438,1367.43C513.491,1392.744,639.597,1443.372,702.65,1475.019C765.703,1506.667,765.703,1519.333,765.703,1525.667L765.703,1532" id="L_I_K_0" class="edge-thickness-normal edge-pattern-solid edge-thickness-normal edge-pattern-solid flowchart-link" style=";" data-edge="true" data-et="edge" data-id="L_I_K_0" data-points="W3sieCI6Mzg3LjM4NDQ0NTg2NTQsInkiOjEzNDIuMTE1NTU0MTM0Nn0seyJ4Ijo3NjUuNzAzMTI1LCJ5IjoxNDk0fSx7IngiOjc2NS43MDMxMjUsInkiOjE1MzZ9XQ==" marker-end="url(#my-svg_flowchart-v2-pointEnd)"/><path d="M705.757,1644L700.206,1649C694.656,1654,683.554,1664,678.004,1673.333C672.453,1682.667,672.453,1691.333,672.453,1695.667L672.453,1700" id="L_K_L_0" class="edge-thickness-normal edge-pattern-solid edge-thickness-normal edge-pattern-solid flowchart-link" style=";" data-edge="true" data-et="edge" data-id="L_K_L_0" data-points="W3sieCI6NzA1Ljc1NjY5NjQyODU3MTQsInkiOjE2NDR9LHsieCI6NjcyLjQ1MzEyNSwieSI6MTY3NH0seyJ4Ijo2NzIuNDUzMTI1LCJ5IjoxNzA0fV0=" marker-end="url(#my-svg_flowchart-v2-pointEnd)"/><path d="M563.72,1903.267L493.767,1932.389C423.813,1961.511,283.907,2019.756,213.953,2059.211C144,2098.667,144,2119.333,144,2129.667L144,2140" id="L_L_M_0" class="edge-thickness-normal edge-pattern-solid edge-thickness-normal edge-pattern-solid flowchart-link" style=";" data-edge="true" data-et="edge" data-id="L_L_M_0" data-points="W3sieCI6NTYzLjcxOTgyMDg5MzYxMzksInkiOjE5MDMuMjY2Njk1ODkzNjEzOH0seyJ4IjoxNDQsInkiOjIwNzh9LHsieCI6MTQ0LCJ5IjoyMTQ0fV0=" marker-end="url(#my-svg_flowchart-v2-pointEnd)"/><path d="M144,2252L144,2265C144,2278,144,2304,195.791,2344.357C247.583,2384.714,351.166,2439.429,402.957,2466.786L454.749,2494.143" id="L_M_N_0" class="edge-thickness-normal edge-pattern-solid edge-thickness-normal edge-pattern-solid flowchart-link" style=";" data-edge="true" data-et="edge" data-id="L_M_N_0" data-points="W3sieCI6MTQ0LCJ5IjoyMjUyfSx7IngiOjE0NCwieSI6MjMzMH0seyJ4Ijo0NTguMjg1ODA2ODExODI4MSwieSI6MjQ5Ni4wMTEwNjgxODgxNzJ9XQ==" marker-end="url(#my-svg_flowchart-v2-pointEnd)"/><path d="M546.297,2677L546.297,2684C546.297,2691,546.297,2705,553.687,2720.497C561.078,2735.994,575.859,2752.988,583.25,2761.485L590.641,2769.982" id="L_N_O_0" class="edge-thickness-normal edge-pattern-solid edge-thickness-normal edge-pattern-solid flowchart-link" style=";" data-edge="true" data-et="edge" data-id="L_N_O_0" data-points="W3sieCI6NTQ2LjI5Njg3NSwieSI6MjY3N30seyJ4Ijo1NDYuMjk2ODc1LCJ5IjoyNzE5fSx7IngiOjU5My4yNjU2MjUsInkiOjI3NzN9XQ==" marker-end="url(#my-svg_flowchart-v2-pointEnd)"/><path d="M626.373,2488.076L665.136,2461.73C703.899,2435.384,781.426,2382.692,820.19,2334.346C858.953,2286,858.953,2242,858.953,2200C858.953,2158,858.953,2118,858.953,2061.333C858.953,2004.667,858.953,1931.333,858.953,1864C858.953,1796.667,858.953,1735.333,853.898,1700.113C848.843,1664.892,838.732,1655.785,833.677,1651.231L828.622,1646.677" id="L_N_K_0" class="edge-thickness-normal edge-pattern-solid edge-thickness-normal edge-pattern-solid flowchart-link" style=";" data-edge="true" data-et="edge" data-id="L_N_K_0" data-points="W3sieCI6NjI2LjM3MjU5NjUxMTQ1NSwieSI6MjQ4OC4wNzU3MjE1MTE0NTV9LHsieCI6ODU4Ljk1MzEyNSwieSI6MjMzMH0seyJ4Ijo4NTguOTUzMTI1LCJ5IjoyMTk4fSx7IngiOjg1OC45NTMxMjUsInkiOjIwNzh9LHsieCI6ODU4Ljk1MzEyNSwieSI6MTg1OH0seyJ4Ijo4NTguOTUzMTI1LCJ5IjoxNjc0fSx7IngiOjgyNS42NDk1NTM1NzE0Mjg2LCJ5IjoxNjQ0fV0=" marker-end="url(#my-svg_flowchart-v2-pointEnd)"/><path d="M582.803,1922.349L546.661,1948.291C510.519,1974.233,438.236,2026.116,414.416,2064.583C390.595,2103.049,415.237,2128.099,427.558,2140.624L439.878,2153.148" id="L_L_P_0" class="edge-thickness-normal edge-pattern-solid edge-thickness-normal edge-pattern-solid flowchart-link" style=";" data-edge="true" data-et="edge" data-id="L_L_P_0" data-points="W3sieCI6NTgyLjgwMjYwMjY4MjgxMSwieSI6MTkyMi4zNDk0Nzc2ODI4MTF9LHsieCI6MzY1Ljk1MzEyNSwieSI6MjA3OH0seyJ4Ijo0NDIuNjgzNTkzNzUsInkiOjIxNTZ9XQ==" marker-end="url(#my-svg_flowchart-v2-pointEnd)"/><path d="M484.684,2156L484.895,2143C485.107,2130,485.53,2104,485.742,2054.333C485.953,2004.667,485.953,1931.333,485.953,1864C485.953,1796.667,485.953,1735.333,509.273,1697.664C532.593,1659.996,579.232,1645.991,602.552,1638.989L625.872,1631.987" id="L_P_K_0" class="edge-thickness-normal edge-pattern-solid edge-thickness-normal edge-pattern-solid flowchart-link" style=";" data-edge="true" data-et="edge" data-id="L_P_K_0" data-points="W3sieCI6NDg0LjY4MzU5Mzc1LCJ5IjoyMTU2fSx7IngiOjQ4NS45NTMxMjUsInkiOjIwNzh9LHsieCI6NDg1Ljk1MzEyNSwieSI6MTg1OH0seyJ4Ijo0ODUuOTUzMTI1LCJ5IjoxNjc0fSx7IngiOjYyOS43MDMxMjUsInkiOjE2MzAuODM2NDYxMTI2MDA1NH1d" marker-end="url(#my-svg_flowchart-v2-pointEnd)"/><path d="M767.175,1917.278L809.979,1944.065C852.784,1970.852,938.392,2024.426,981.196,2071.213C1024,2118,1024,2158,1024,2200C1024,2242,1024,2286,1024,2343.417C1024,2400.833,1024,2471.667,1024,2536.5C1024,2601.333,1024,2660.167,980.363,2700.21C936.725,2740.254,849.45,2761.508,805.813,2772.135L762.175,2782.762" id="L_L_O_0" class="edge-thickness-normal edge-pattern-solid edge-thickness-normal edge-pattern-solid flowchart-link" style=";" data-edge="true" data-et="edge" data-id="L_L_O_0" data-points="W3sieCI6NzY3LjE3NTM5NzM0MjA1NDIsInkiOjE5MTcuMjc3NzI3NjU3OTQ2fSx7IngiOjEwMjQsInkiOjIwNzh9LHsieCI6MTAyNCwieSI6MjE5OH0seyJ4IjoxMDI0LCJ5IjoyMzMwfSx7IngiOjEwMjQsInkiOjI1NDIuNX0seyJ4IjoxMDI0LCJ5IjoyNzE5fSx7IngiOjc1OC4yODkwNjI1LCJ5IjoyNzgzLjcwODM5MTEzNzE4MzN9XQ==" marker-end="url(#my-svg_flowchart-v2-pointEnd)"/><path d="M794.396,1890.057L913.548,1921.381C1032.7,1952.705,1271.004,2015.352,1390.156,2066.676C1509.309,2118,1509.309,2158,1509.309,2200C1509.309,2242,1509.309,2286,1509.309,2343.417C1509.309,2400.833,1509.309,2471.667,1509.309,2536.5C1509.309,2601.333,1509.309,2660.167,1509.309,2695.917C1509.309,2731.667,1509.309,2744.333,1509.309,2750.667L1509.309,2757" id="L_L_S_0" class="edge-thickness-normal edge-pattern-solid edge-thickness-normal edge-pattern-solid flowchart-link" style=";" data-edge="true" data-et="edge" data-id="L_L_S_0" data-points="W3sieCI6Nzk0LjM5NTc2MTQzMjUxODQsInkiOjE4OTAuMDU3MzYzNTY3NDgxNn0seyJ4IjoxNTA5LjMwODU5Mzc1LCJ5IjoyMDc4fSx7IngiOjE1MDkuMzA4NTkzNzUsInkiOjIxOTh9LHsieCI6MTUwOS4zMDg1OTM3NSwieSI6MjMzMH0seyJ4IjoxNTA5LjMwODU5Mzc1LCJ5IjoyNTQyLjV9LHsieCI6MTUwOS4zMDg1OTM3NSwieSI6MjcxOX0seyJ4IjoxNTA5LjMwODU5Mzc1LCJ5IjoyNzYxfV0=" marker-end="url(#my-svg_flowchart-v2-pointEnd)"/><path d="M629.797,2857L629.797,2864C629.797,2871,629.797,2885,638.172,2906.616C646.546,2928.233,663.296,2957.466,671.671,2972.082L680.045,2986.699" id="L_O_T_0" class="edge-thickness-normal edge-pattern-solid edge-thickness-normal edge-pattern-solid flowchart-link" style=";" data-edge="true" data-et="edge" data-id="L_O_T_0" data-points="W3sieCI6NjI5Ljc5Njg3NSwieSI6Mjg1N30seyJ4Ijo2MjkuNzk2ODc1LCJ5IjoyODk5fSx7IngiOjY4Mi4wMzM4Mjg0MjIwNTMzLCJ5IjoyOTkwLjE2OTI5NjU3Nzk0NjZ9XQ==" marker-end="url(#my-svg_flowchart-v2-pointEnd)"/><path d="M819.032,3037.048L885.626,3014.04C952.219,2991.032,1085.407,2945.016,1152,2908.008C1218.594,2871,1218.594,2843,1218.594,2813C1218.594,2783,1218.594,2751,1218.594,2705.583C1218.594,2660.167,1218.594,2601.333,1218.594,2536.5C1218.594,2471.667,1218.594,2400.833,1218.594,2343.417C1218.594,2286,1218.594,2242,1218.594,2200C1218.594,2158,1218.594,2118,1218.594,2061.333C1218.594,2004.667,1218.594,1931.333,1218.594,1864C1218.594,1796.667,1218.594,1735.333,1166.434,1694.992C1114.275,1654.651,1009.955,1635.303,957.796,1625.628L905.636,1615.954" id="L_T_K_0" class="edge-thickness-normal edge-pattern-solid edge-thickness-normal edge-pattern-solid flowchart-link" style=";" data-edge="true" data-et="edge" data-id="L_T_K_0" data-points="W3sieCI6ODE5LjAzMjI2MDA2NTIxMTIsInkiOjMwMzcuMDQ3ODg1MDY1MjExfSx7IngiOjEyMTguNTkzNzUsInkiOjI4OTl9LHsieCI6MTIxOC41OTM3NSwieSI6MjgxNX0seyJ4IjoxMjE4LjU5Mzc1LCJ5IjoyNzE5fSx7IngiOjEyMTguNTkzNzUsInkiOjI1NDIuNX0seyJ4IjoxMjE4LjU5Mzc1LCJ5IjoyMzMwfSx7IngiOjEyMTguNTkzNzUsInkiOjIxOTh9LHsieCI6MTIxOC41OTM3NSwieSI6MjA3OH0seyJ4IjoxMjE4LjU5Mzc1LCJ5IjoxODU4fSx7IngiOjEyMTguNTkzNzUsInkiOjE2NzR9LHsieCI6OTAxLjcwMzEyNSwieSI6MTYxNS4yMjQ2MzM0MzEwODV9XQ==" marker-end="url(#my-svg_flowchart-v2-pointEnd)"/><path d="M662.777,3128.198L638.512,3150.603C614.247,3173.007,565.717,3217.816,545.669,3248.625C525.621,3279.433,534.055,3296.242,538.272,3304.646L542.489,3313.05" id="L_T_U_0" class="edge-thickness-normal edge-pattern-solid edge-thickness-normal edge-pattern-solid flowchart-link" style=";" data-edge="true" data-et="edge" data-id="L_T_U_0" data-points="W3sieCI6NjYyLjc3NjU1MTI1MjAzMTksInkiOjMxMjguMTk4NDI2MjUyMDMyfSx7IngiOjUxNy4xODc1LCJ5IjozMjYyLjYyNX0seyJ4Ijo1NDQuMjgzMjAzMTI1LCJ5IjozMzE2LjYyNX1d" marker-end="url(#my-svg_flowchart-v2-pointEnd)"/><path d="M821.453,3098.156L909.6,3125.568C997.746,3152.979,1174.039,3207.802,1262.186,3245.547C1350.332,3283.292,1350.332,3303.958,1350.332,3314.292L1350.332,3324.625" id="L_T_V_0" class="edge-thickness-normal edge-pattern-solid edge-thickness-normal edge-pattern-solid flowchart-link" style=";" data-edge="true" data-et="edge" data-id="L_T_V_0" data-points="W3sieCI6ODIxLjQ1MzI3NDI1NDE3NzQsInkiOjMwOTguMTU2MTAwNzQ1ODIyNn0seyJ4IjoxMzUwLjMzMjAzMTI1LCJ5IjozMjYyLjYyNX0seyJ4IjoxMzUwLjMzMjAzMTI1LCJ5IjozMzI4LjYyNX1d" marker-end="url(#my-svg_flowchart-v2-pointEnd)"/><path d="M1509.309,2869L1509.309,2874C1509.309,2879,1509.309,2889,1509.309,2898.333C1509.309,2907.667,1509.309,2916.333,1509.309,2920.667L1509.309,2925" id="L_S_W_0" class="edge-thickness-normal edge-pattern-solid edge-thickness-normal edge-pattern-solid flowchart-link" style=";" data-edge="true" data-et="edge" data-id="L_S_W_0" data-points="W3sieCI6MTUwOS4zMDg1OTM3NSwieSI6Mjg2OX0seyJ4IjoxNTA5LjMwODU5Mzc1LCJ5IjoyODk5fSx7IngiOjE1MDkuMzA4NTkzNzUsInkiOjI5Mjl9XQ==" marker-end="url(#my-svg_flowchart-v2-pointEnd)"/><path d="M1570.865,3147.069L1586.014,3166.328C1601.164,3185.587,1631.463,3224.106,1646.612,3251.699C1661.762,3279.292,1661.762,3295.958,1661.762,3304.292L1661.762,3312.625" id="L_W_X_0" class="edge-thickness-normal edge-pattern-solid edge-thickness-normal edge-pattern-solid flowchart-link" style=";" data-edge="true" data-et="edge" data-id="L_W_X_0" data-points="W3sieCI6MTU3MC44NjQ5NTY4NDI4MjA3LCJ5IjozMTQ3LjA2ODYzNjkwNzE3OX0seyJ4IjoxNjYxLjc2MTcxODc1LCJ5IjozMjYyLjYyNX0seyJ4IjoxNjYxLjc2MTcxODc1LCJ5IjozMzE2LjYyNX1d" marker-end="url(#my-svg_flowchart-v2-pointEnd)"/><path d="M1416.415,3115.731L1367.943,3140.214C1319.471,3164.696,1222.526,3213.66,1105.008,3251.598C987.49,3289.536,849.397,3316.446,780.351,3329.902L711.305,3343.357" id="L_W_U_0" class="edge-thickness-normal edge-pattern-solid edge-thickness-normal edge-pattern-solid flowchart-link" style=";" data-edge="true" data-et="edge" data-id="L_W_U_0" data-points="W3sieCI6MTQxNi40MTQ4NDI0ODE4MjI3LCJ5IjozMTE1LjczMTI0ODczMTgyMjd9LHsieCI6MTEyNS41ODIwMzEyNSwieSI6MzI2Mi42MjV9LHsieCI6NzA3LjM3ODkwNjI1LCJ5IjozMzQ0LjEyMjA4MTk1ODg5NH1d" marker-end="url(#my-svg_flowchart-v2-pointEnd)"/><path d="M571.379,3424.625L571.379,3429.625C571.379,3434.625,571.379,3444.625,571.379,3453.958C571.379,3463.292,571.379,3471.958,571.379,3476.292L571.379,3480.625" id="L_U_Z_0" class="edge-thickness-normal edge-pattern-solid edge-thickness-normal edge-pattern-solid flowchart-link" style=";" data-edge="true" data-et="edge" data-id="L_U_Z_0" data-points="W3sieCI6NTcxLjM3ODkwNjI1LCJ5IjozNDI0LjYyNX0seyJ4Ijo1NzEuMzc4OTA2MjUsInkiOjM0NTQuNjI1fSx7IngiOjU3MS4zNzg5MDYyNSwieSI6MzQ4NC42MjV9XQ==" marker-end="url(#my-svg_flowchart-v2-pointEnd)"/></g><g class="edgeLabels"><g class="edgeLabel"><g class="label" data-id="L_A_B_0" transform="translate(0, 0)"><foreignObject width="0" height="0"><div xmlns="http://www.w3.org/1999/xhtml" class="labelBkg" style="display: table-cell; white-space: nowrap; line-height: 1.5; max-width: 200px; text-align: center;"><span class="edgeLabel"></span></div></foreignObject></g></g><g class="edgeLabel"><g class="label" data-id="L_B_C_0" transform="translate(0, 0)"><foreignObject width="0" height="0"><div xmlns="http://www.w3.org/1999/xhtml" class="labelBkg" style="display: table-cell; white-space: nowrap; line-height: 1.5; max-width: 200px; text-align: center;"><span class="edgeLabel"></span></div></foreignObject></g></g><g class="edgeLabel" transform="translate(91, 1102)"><g class="label" data-id="L_C_D_0" transform="translate(-27.7734375, -12)"><foreignObject width="55.546875" height="24"><div xmlns="http://www.w3.org/1999/xhtml" class="labelBkg" style="display: table-cell; white-space: nowrap; line-height: 1.5; max-width: 200px; text-align: center;"><span class="edgeLabel"><p>否 / No</p></span></div></foreignObject></g></g><g class="edgeLabel"><g class="label" data-id="L_D_C_0" transform="translate(0, 0)"><foreignObject width="0" height="0"><div xmlns="http://www.w3.org/1999/xhtml" class="labelBkg" style="display: table-cell; white-space: nowrap; line-height: 1.5; max-width: 200px; text-align: center;"><span class="edgeLabel"></span></div></foreignObject></g></g><g class="edgeLabel" transform="translate(277.5, 718)"><g class="label" data-id="L_C_E_0" transform="translate(-31.109375, -12)"><foreignObject width="62.21875" height="24"><div xmlns="http://www.w3.org/1999/xhtml" class="labelBkg" style="display: table-cell; white-space: nowrap; line-height: 1.5; max-width: 200px; text-align: center;"><span class="edgeLabel"><p>是 / Yes</p></span></div></foreignObject></g></g><g class="edgeLabel"><g class="label" data-id="L_E_H_0" transform="translate(0, 0)"><foreignObject width="0" height="0"><div xmlns="http://www.w3.org/1999/xhtml" class="labelBkg" style="display: table-cell; white-space: nowrap; line-height: 1.5; max-width: 200px; text-align: center;"><span class="edgeLabel"></span></div></foreignObject></g></g><g class="edgeLabel"><g class="label" data-id="L_H_I_0" transform="translate(0, 0)"><foreignObject width="0" height="0"><div xmlns="http://www.w3.org/1999/xhtml" class="labelBkg" style="display: table-cell; white-space: nowrap; line-height: 1.5; max-width: 200px; text-align: center;"><span class="edgeLabel"></span></div></foreignObject></g></g><g class="edgeLabel" transform="translate(277.5, 1494)"><g class="label" data-id="L_I_J_0" transform="translate(-27.7734375, -12)"><foreignObject width="55.546875" height="24"><div xmlns="http://www.w3.org/1999/xhtml" class="labelBkg" style="display: table-cell; white-space: nowrap; line-height: 1.5; max-width: 200px; text-align: center;"><span class="edgeLabel"><p>否 / No</p></span></div></foreignObject></g></g><g class="edgeLabel"><g class="label" data-id="L_J_D_0" transform="translate(0, 0)"><foreignObject width="0" height="0"><div xmlns="http://www.w3.org/1999/xhtml" class="labelBkg" style="display: table-cell; white-space: nowrap; line-height: 1.5; max-width: 200px; text-align: center;"><span class="edgeLabel"></span></div></foreignObject></g></g><g class="edgeLabel" transform="translate(765.703125, 1494)"><g class="label" data-id="L_I_K_0" transform="translate(-31.109375, -12)"><foreignObject width="62.21875" height="24"><div xmlns="http://www.w3.org/1999/xhtml" class="labelBkg" style="display: table-cell; white-space: nowrap; line-height: 1.5; max-width: 200px; text-align: center;"><span class="edgeLabel"><p>是 / Yes</p></span></div></foreignObject></g></g><g class="edgeLabel"><g class="label" data-id="L_K_L_0" transform="translate(0, 0)"><foreignObject width="0" height="0"><div xmlns="http://www.w3.org/1999/xhtml" class="labelBkg" style="display: table-cell; white-space: nowrap; line-height: 1.5; max-width: 200px; text-align: center;"><span class="edgeLabel"></span></div></foreignObject></g></g><g class="edgeLabel" transform="translate(144, 2078)"><g class="label" data-id="L_L_M_0" transform="translate(-100, -36)"><foreignObject width="200" height="72"><div xmlns="http://www.w3.org/1999/xhtml" class="labelBkg" style="display: table; white-space: break-spaces; line-height: 1.5; max-width: 200px; text-align: center; width: 200px;"><span class="edgeLabel"><p>老师未回复 / 无可排时间<br />Teacher not responding / no available slot</p></span></div></foreignObject></g></g><g class="edgeLabel"><g class="label" data-id="L_M_N_0" transform="translate(0, 0)"><foreignObject width="0" height="0"><div xmlns="http://www.w3.org/1999/xhtml" class="labelBkg" style="display: table-cell; white-space: nowrap; line-height: 1.5; max-width: 200px; text-align: center;"><span class="edgeLabel"></span></div></foreignObject></g></g><g class="edgeLabel" transform="translate(546.296875, 2719)"><g class="label" data-id="L_N_O_0" transform="translate(-27.7734375, -12)"><foreignObject width="55.546875" height="24"><div xmlns="http://www.w3.org/1999/xhtml" class="labelBkg" style="display: table-cell; white-space: nowrap; line-height: 1.5; max-width: 200px; text-align: center;"><span class="edgeLabel"><p>否 / No</p></span></div></foreignObject></g></g><g class="edgeLabel" transform="translate(858.953125, 2078)"><g class="label" data-id="L_N_K_0" transform="translate(-31.109375, -12)"><foreignObject width="62.21875" height="24"><div xmlns="http://www.w3.org/1999/xhtml" class="labelBkg" style="display: table-cell; white-space: nowrap; line-height: 1.5; max-width: 200px; text-align: center;"><span class="edgeLabel"><p>是 / Yes</p></span></div></foreignObject></g></g><g class="edgeLabel" transform="translate(429.93428, 2032.07551)"><g class="label" data-id="L_L_P_0" transform="translate(-100, -36)"><foreignObject width="200" height="72"><div xmlns="http://www.w3.org/1999/xhtml" class="labelBkg" style="display: table; white-space: break-spaces; line-height: 1.5; max-width: 200px; text-align: center; width: 200px;"><span class="edgeLabel"><p>涉及收费 / 课时包 / 结算<br />Involves payment / package / settlement</p></span></div></foreignObject></g></g><g class="edgeLabel"><g class="label" data-id="L_P_K_0" transform="translate(0, 0)"><foreignObject width="0" height="0"><div xmlns="http://www.w3.org/1999/xhtml" class="labelBkg" style="display: table-cell; white-space: nowrap; line-height: 1.5; max-width: 200px; text-align: center;"><span class="edgeLabel"></span></div></foreignObject></g></g><g class="edgeLabel" transform="translate(1024, 2330)"><g class="label" data-id="L_L_O_0" transform="translate(-100, -48)"><foreignObject width="200" height="96"><div xmlns="http://www.w3.org/1999/xhtml" class="labelBkg" style="display: table; white-space: break-spaces; line-height: 1.5; max-width: 200px; text-align: center; width: 200px;"><span class="edgeLabel"><p>涉及异常 / 投诉 / 权限外事项<br />Exception / complaint / out-of-scope</p></span></div></foreignObject></g></g><g class="edgeLabel" transform="translate(1509.30859375, 2330)"><g class="label" data-id="L_L_S_0" transform="translate(-73.65625, -12)"><foreignObject width="147.3125" height="24"><div xmlns="http://www.w3.org/1999/xhtml" class="labelBkg" style="display: table-cell; white-space: nowrap; line-height: 1.5; max-width: 200px; text-align: center;"><span class="edgeLabel"><p>无卡点 / No blocker</p></span></div></foreignObject></g></g><g class="edgeLabel"><g class="label" data-id="L_O_T_0" transform="translate(0, 0)"><foreignObject width="0" height="0"><div xmlns="http://www.w3.org/1999/xhtml" class="labelBkg" style="display: table-cell; white-space: nowrap; line-height: 1.5; max-width: 200px; text-align: center;"><span class="edgeLabel"></span></div></foreignObject></g></g><g class="edgeLabel" transform="translate(1218.59375, 2330)"><g class="label" data-id="L_T_K_0" transform="translate(-74.59375, -12)"><foreignObject width="149.1875" height="24"><div xmlns="http://www.w3.org/1999/xhtml" class="labelBkg" style="display: table-cell; white-space: nowrap; line-height: 1.5; max-width: 200px; text-align: center;"><span class="edgeLabel"><p>继续执行 / Continue</p></span></div></foreignObject></g></g><g class="edgeLabel" transform="translate(567.78761, 3215.90445)"><g class="label" data-id="L_T_U_0" transform="translate(-60.609375, -24)"><foreignObject width="121.21875" height="48"><div xmlns="http://www.w3.org/1999/xhtml" class="labelBkg" style="display: table-cell; white-space: nowrap; line-height: 1.5; max-width: 200px; text-align: center;"><span class="edgeLabel"><p>暂停 / 待观察<br />Pause / Monitor</p></span></div></foreignObject></g></g><g class="edgeLabel" transform="translate(1350.33203125, 3262.625)"><g class="label" data-id="L_T_V_0" transform="translate(-90.296875, -24)"><foreignObject width="180.59375" height="48"><div xmlns="http://www.w3.org/1999/xhtml" class="labelBkg" style="display: table-cell; white-space: nowrap; line-height: 1.5; max-width: 200px; text-align: center;"><span class="edgeLabel"><p>结束 / 无需继续<br />Stop / No further action</p></span></div></foreignObject></g></g><g class="edgeLabel"><g class="label" data-id="L_S_W_0" transform="translate(0, 0)"><foreignObject width="0" height="0"><div xmlns="http://www.w3.org/1999/xhtml" class="labelBkg" style="display: table-cell; white-space: nowrap; line-height: 1.5; max-width: 200px; text-align: center;"><span class="edgeLabel"></span></div></foreignObject></g></g><g class="edgeLabel" transform="translate(1661.76171875, 3262.625)"><g class="label" data-id="L_W_X_0" transform="translate(-31.109375, -12)"><foreignObject width="62.21875" height="24"><div xmlns="http://www.w3.org/1999/xhtml" class="labelBkg" style="display: table-cell; white-space: nowrap; line-height: 1.5; max-width: 200px; text-align: center;"><span class="edgeLabel"><p>是 / Yes</p></span></div></foreignObject></g></g><g class="edgeLabel" transform="translate(1076.38467, 3272.21231)"><g class="label" data-id="L_W_U_0" transform="translate(-27.7734375, -12)"><foreignObject width="55.546875" height="24"><div xmlns="http://www.w3.org/1999/xhtml" class="labelBkg" style="display: table-cell; white-space: nowrap; line-height: 1.5; max-width: 200px; text-align: center;"><span class="edgeLabel"><p>否 / No</p></span></div></foreignObject></g></g><g class="edgeLabel"><g class="label" data-id="L_U_Z_0" transform="translate(0, 0)"><foreignObject width="0" height="0"><div xmlns="http://www.w3.org/1999/xhtml" class="labelBkg" style="display: table-cell; white-space: nowrap; line-height: 1.5; max-width: 200px; text-align: center;"><span class="edgeLabel"></span></div></foreignObject></g></g></g><g class="nodes"><g class="node default" id="flowchart-A-0" transform="translate(205.203125, 86)"><rect class="basic label-container" style="" x="-136" y="-78" width="272" height="156"/><g class="label" style="" transform="translate(-100, -60)"><rect/><foreignObject width="200" height="120"><div xmlns="http://www.w3.org/1999/xhtml" style="display: table; white-space: break-spaces; line-height: 1.5; max-width: 200px; text-align: center; width: 200px;"><span class="nodeLabel"><p>家长 / 学生 / 合作方 / 老师 发来需求<br />Requests come from parents / students / partners / teachers</p></span></div></foreignObject></g></g><g class="node default" id="flowchart-B-1" transform="translate(205.203125, 266)"><rect class="basic label-container" style="" x="-132.15625" y="-42" width="264.3125" height="84"/><g class="label" style="" transform="translate(-96.15625, -24)"><rect/><foreignObject width="192.3125" height="48"><div xmlns="http://www.w3.org/1999/xhtml" style="display: table-cell; white-space: nowrap; line-height: 1.5; max-width: 200px; text-align: center;"><span class="nodeLabel"><p>Emily 收集信息<br />Emily collects information</p></span></div></foreignObject></g></g><g class="node default" id="flowchart-C-3" transform="translate(205.203125, 522)"><polygon points="154,0 308,-154 154,-308 0,-154" class="label-container" transform="translate(-153.5, 154)"/><g class="label" style="" transform="translate(-100, -36)"><rect/><foreignObject width="200" height="72"><div xmlns="http://www.w3.org/1999/xhtml" style="display: table; white-space: break-spaces; line-height: 1.5; max-width: 200px; text-align: center; width: 200px;"><span class="nodeLabel"><p>信息是否完整?<br />Is the information complete?</p></span></div></foreignObject></g></g><g class="node default" id="flowchart-D-5" transform="translate(277.5, 1858)"><rect class="basic label-container" style="" x="-136" y="-54" width="272" height="108"/><g class="label" style="" transform="translate(-100, -36)"><rect/><foreignObject width="200" height="72"><div xmlns="http://www.w3.org/1999/xhtml" style="display: table; white-space: break-spaces; line-height: 1.5; max-width: 200px; text-align: center; width: 200px;"><span class="nodeLabel"><p>Emily 补信息<br />Emily fills missing information</p></span></div></foreignObject></g></g><g class="node default" id="flowchart-E-9" transform="translate(277.5, 826)"><rect class="basic label-container" style="" x="-136" y="-66" width="272" height="132"/><g class="label" style="" transform="translate(-100, -48)"><rect/><foreignObject width="200" height="96"><div xmlns="http://www.w3.org/1999/xhtml" style="display: table; white-space: break-spaces; line-height: 1.5; max-width: 200px; text-align: center; width: 200px;"><span class="nodeLabel"><p>Emily 判断事项类型并录入工单<br />Emily classifies the issue and creates a ticket</p></span></div></foreignObject></g></g><g class="node default" id="flowchart-H-11" transform="translate(277.5, 1006)"><rect class="basic label-container" style="" x="-136" y="-54" width="272" height="108"/><g class="label" style="" transform="translate(-100, -36)"><rect/><foreignObject width="200" height="72"><div xmlns="http://www.w3.org/1999/xhtml" style="display: table; white-space: break-spaces; line-height: 1.5; max-width: 200px; text-align: center; width: 200px;"><span class="nodeLabel"><p>交给 Eva 执行<br />Hand over to Eva for execution</p></span></div></foreignObject></g></g><g class="node default" id="flowchart-I-13" transform="translate(277.5, 1298)"><polygon points="154,0 308,-154 154,-308 0,-154" class="label-container" transform="translate(-153.5, 154)"/><g class="label" style="" transform="translate(-100, -36)"><rect/><foreignObject width="200" height="72"><div xmlns="http://www.w3.org/1999/xhtml" style="display: table; white-space: break-spaces; line-height: 1.5; max-width: 200px; text-align: center; width: 200px;"><span class="nodeLabel"><p>工单信息是否足够执行?<br />Is the ticket complete enough to execute?</p></span></div></foreignObject></g></g><g class="node default" id="flowchart-J-15" transform="translate(277.5, 1590)"><rect class="basic label-container" style="" x="-136" y="-54" width="272" height="108"/><g class="label" style="" transform="translate(-100, -36)"><rect/><foreignObject width="200" height="72"><div xmlns="http://www.w3.org/1999/xhtml" style="display: table; white-space: break-spaces; line-height: 1.5; max-width: 200px; text-align: center; width: 200px;"><span class="nodeLabel"><p>Eva 退回 Emily 补信息<br />Eva returns ticket to Emily for clarification</p></span></div></foreignObject></g></g><g class="node default" id="flowchart-K-19" transform="translate(765.703125, 1590)"><rect class="basic label-container" style="" x="-136" y="-54" width="272" height="108"/><g class="label" style="" transform="translate(-100, -36)"><rect/><foreignObject width="200" height="72"><div xmlns="http://www.w3.org/1999/xhtml" style="display: table; white-space: break-spaces; line-height: 1.5; max-width: 200px; text-align: center; width: 200px;"><span class="nodeLabel"><p>Eva 在系统执行<br />Eva executes in the system</p></span></div></foreignObject></g></g><g class="node default" id="flowchart-L-21" transform="translate(672.453125, 1858)"><polygon points="154,0 308,-154 154,-308 0,-154" class="label-container" transform="translate(-153.5, 154)"/><g class="label" style="" transform="translate(-100, -36)"><rect/><foreignObject width="200" height="72"><div xmlns="http://www.w3.org/1999/xhtml" style="display: table; white-space: break-spaces; line-height: 1.5; max-width: 200px; text-align: center; width: 200px;"><span class="nodeLabel"><p>执行中是否遇到卡点?<br />Any blocker during execution?</p></span></div></foreignObject></g></g><g class="node default" id="flowchart-M-23" transform="translate(144, 2198)"><rect class="basic label-container" style="" x="-136" y="-54" width="272" height="108"/><g class="label" style="" transform="translate(-100, -36)"><rect/><foreignObject width="200" height="72"><div xmlns="http://www.w3.org/1999/xhtml" style="display: table; white-space: break-spaces; line-height: 1.5; max-width: 200px; text-align: center; width: 200px;"><span class="nodeLabel"><p>Emily 联系老师确认<br />Emily follows up with teacher</p></span></div></foreignObject></g></g><g class="node default" id="flowchart-N-25" transform="translate(546.296875, 2542.5)"><polygon points="134.5,0 269,-134.5 134.5,-269 0,-134.5" class="label-container" transform="translate(-134, 134.5)"/><g class="label" style="" transform="translate(-92.5, -24)"><rect/><foreignObject width="185" height="48"><div xmlns="http://www.w3.org/1999/xhtml" style="display: table-cell; white-space: nowrap; line-height: 1.5; max-width: 200px; text-align: center;"><span class="nodeLabel"><p>老师是否确认?<br />Did the teacher confirm?</p></span></div></foreignObject></g></g><g class="node default" id="flowchart-O-27" transform="translate(629.796875, 2815)"><rect class="basic label-container" style="" x="-128.4921875" y="-42" width="256.984375" height="84"/><g class="label" style="" transform="translate(-92.4921875, -24)"><rect/><foreignObject width="184.984375" height="48"><div xmlns="http://www.w3.org/1999/xhtml" style="display: table-cell; white-space: nowrap; line-height: 1.5; max-width: 200px; text-align: center;"><span class="nodeLabel"><p>升级给管理<br />Escalate to management</p></span></div></foreignObject></g></g><g class="node default" id="flowchart-P-31" transform="translate(484, 2198)"><rect class="basic label-container" style="" x="-95.90625" y="-42" width="191.8125" height="84"/><g class="label" style="" transform="translate(-59.90625, -24)"><rect/><foreignObject width="119.8125" height="48"><div xmlns="http://www.w3.org/1999/xhtml" style="display: table-cell; white-space: nowrap; line-height: 1.5; max-width: 200px; text-align: center;"><span class="nodeLabel"><p>财务支持<br />Finance support</p></span></div></foreignObject></g></g><g class="node default" id="flowchart-S-37" transform="translate(1509.30859375, 2815)"><rect class="basic label-container" style="" x="-136" y="-54" width="272" height="108"/><g class="label" style="" transform="translate(-100, -36)"><rect/><foreignObject width="200" height="72"><div xmlns="http://www.w3.org/1999/xhtml" style="display: table; white-space: break-spaces; line-height: 1.5; max-width: 200px; text-align: center; width: 200px;"><span class="nodeLabel"><p>Eva 回填工单处理结果<br />Eva backfills handling result in the ticket</p></span></div></foreignObject></g></g><g class="node default" id="flowchart-T-39" transform="translate(727.09375, 3068.8125)"><polygon points="123.703125,0 247.40625,-123.703125 123.703125,-247.40625 0,-123.703125" class="label-container" transform="translate(-123.203125, 123.703125)"/><g class="label" style="" transform="translate(-81.703125, -24)"><rect/><foreignObject width="163.40625" height="48"><div xmlns="http://www.w3.org/1999/xhtml" style="display: table-cell; white-space: nowrap; line-height: 1.5; max-width: 200px; text-align: center;"><span class="nodeLabel"><p>管理决定<br />Management decision</p></span></div></foreignObject></g></g><g class="node default" id="flowchart-U-43" transform="translate(571.37890625, 3370.625)"><rect class="basic label-container" style="" x="-136" y="-54" width="272" height="108"/><g class="label" style="" transform="translate(-100, -36)"><rect/><foreignObject width="200" height="72"><div xmlns="http://www.w3.org/1999/xhtml" style="display: table; white-space: break-spaces; line-height: 1.5; max-width: 200px; text-align: center; width: 200px;"><span class="nodeLabel"><p>工单未完成并写原因<br />Leave ticket open with reason</p></span></div></foreignObject></g></g><g class="node default" id="flowchart-V-45" transform="translate(1350.33203125, 3370.625)"><rect class="basic label-container" style="" x="-130.4296875" y="-42" width="260.859375" height="84"/><g class="label" style="" transform="translate(-94.4296875, -24)"><rect/><foreignObject width="188.859375" height="48"><div xmlns="http://www.w3.org/1999/xhtml" style="display: table-cell; white-space: nowrap; line-height: 1.5; max-width: 200px; text-align: center;"><span class="nodeLabel"><p>工单取消并归档<br />Cancel and archive ticket</p></span></div></foreignObject></g></g><g class="node default" id="flowchart-W-47" transform="translate(1509.30859375, 3068.8125)"><polygon points="139.8125,0 279.625,-139.8125 139.8125,-279.625 0,-139.8125" class="label-container" transform="translate(-139.3125, 139.8125)"/><g class="label" style="" transform="translate(-97.8125, -24)"><rect/><foreignObject width="195.625" height="48"><div xmlns="http://www.w3.org/1999/xhtml" style="display: table-cell; white-space: nowrap; line-height: 1.5; max-width: 200px; text-align: center;"><span class="nodeLabel"><p>是否已完全处理?<br />Is the issue fully resolved?</p></span></div></foreignObject></g></g><g class="node default" id="flowchart-X-49" transform="translate(1661.76171875, 3370.625)"><rect class="basic label-container" style="" x="-136" y="-54" width="272" height="108"/><g class="label" style="" transform="translate(-100, -36)"><rect/><foreignObject width="200" height="72"><div xmlns="http://www.w3.org/1999/xhtml" style="display: table; white-space: break-spaces; line-height: 1.5; max-width: 200px; text-align: center; width: 200px;"><span class="nodeLabel"><p>点击完成并归档<br />Mark completed and archive</p></span></div></foreignObject></g></g><g class="node default" id="flowchart-Z-53" transform="translate(571.37890625, 3574.625)"><rect class="basic label-container" style="" x="-136" y="-90" width="272" height="180"/><g class="label" style="" transform="translate(-100, -72)"><rect/><foreignObject width="200" height="144"><div xmlns="http://www.w3.org/1999/xhtml" style="display: table; white-space: break-spaces; line-height: 1.5; max-width: 200px; text-align: center; width: 200px;"><span class="nodeLabel"><p>Emily 收工前汇总未完成工单给管理<br />Emily summarizes unresolved tickets for management before end of day</p></span></div></foreignObject></g></g></g></g></g></svg>